<svg width="31" height="50" viewBox="0 0 31 50" fill="none" xmlns="http://www.w3.org/2000/svg">
<path d="M20.1933 27.1154C23.0075 24.3012 23.0075 19.7384 20.1933 16.9242C17.379 14.11 12.8163 14.11 10.002 16.9242C7.18781 19.7384 7.18781 24.3012 10.002 27.1154C12.8163 29.9296 17.379 29.9296 20.1933 27.1154Z" fill="#B2F0FB"/>
<path d="M29.647 31.6113L25.7543 29.625C26.3116 26.3537 26.744 22.9856 26.744 20.4113C26.744 13.1687 23.7156 8.10515 21.175 5.13265C18.421 1.91052 15.6777 0.409274 15.5622 0.346964C15.2753 0.191963 14.9297 0.191963 14.6428 0.346964C14.5274 0.409177 11.784 1.91052 9.02999 5.13265C6.4894 8.10515 3.46098 13.1687 3.46098 20.4113C3.46098 22.9855 3.89338 26.3536 4.45068 29.625L0.558142 31.6113C0.175574 31.8066 -0.0324493 32.2305 0.0470831 32.6525L2.21323 44.1377C2.27351 44.457 2.48995 44.7247 2.7896 44.8505C2.90996 44.901 3.03729 44.9258 3.16394 44.9258C3.35281 44.9258 3.54041 44.8706 3.70199 44.7624L8.02113 41.8731H10.4816C10.4108 42.2006 10.3746 42.5364 10.3746 42.8752C10.3746 45.2271 13.7364 48.7877 14.4104 49.4777C14.5925 49.664 14.842 49.7691 15.1025 49.7691C15.363 49.7691 15.6126 49.664 15.7946 49.4777C16.4686 48.7877 19.8304 45.227 19.8304 42.8752C19.8304 42.5364 19.7942 42.2006 19.7234 41.8731H22.1839L26.5031 44.7624C26.6648 44.8705 26.8523 44.9258 27.0412 44.9258C27.1679 44.9258 27.2953 44.901 27.4155 44.8505C27.7152 44.7247 27.9316 44.457 27.9919 44.1377L30.158 32.6525C30.2377 32.2305 30.0295 31.8066 29.647 31.6113ZM10.4506 6.44929C12.3382 4.22519 14.2499 2.87333 15.1026 2.32831C15.9561 2.87381 17.8673 4.22548 19.7546 6.44929C20.305 7.09793 20.8109 7.7667 21.2722 8.45492H8.93304C9.39417 7.7667 9.9001 7.09793 10.4506 6.44929ZM7.78108 10.39H22.4241C24.0089 13.413 24.8089 16.7675 24.8089 20.4113C24.8089 26.3262 22.3277 37.0507 21.6328 39.938H8.57244C7.87745 37.0511 5.39627 26.3283 5.39627 20.4113C5.39627 16.7675 6.19633 13.413 7.78108 10.39ZM2.08309 33.0057L4.80645 31.616C5.53027 35.4992 6.34543 38.97 6.69936 40.4294L3.84355 42.3398L2.08309 33.0057ZM17.8954 42.8753C17.8954 43.8572 16.4303 45.8823 15.1026 47.3797C13.7747 45.8823 12.3098 43.8571 12.3098 42.8753C12.3098 42.5304 12.3731 42.191 12.4951 41.8732H17.7102C17.8322 42.191 17.8954 42.5304 17.8954 42.8753ZM26.3618 42.3398L23.506 40.4295C23.8599 38.9702 24.6749 35.4993 25.3989 31.6161L28.1222 33.0058L26.3618 42.3398Z" fill="#020288"/>
<path d="M15.1026 25.1094C16.8064 25.1094 18.1926 23.7232 18.1926 22.0193C18.1926 20.3155 16.8064 18.9294 15.1026 18.9294C13.3989 18.9294 12.0127 20.3156 12.0127 22.0194C12.0127 23.7233 13.3989 25.1094 15.1026 25.1094ZM15.1026 20.8645C15.7395 20.8645 16.2575 21.3827 16.2575 22.0194C16.2575 22.6562 15.7395 23.1744 15.1026 23.1744C14.4658 23.1744 13.9478 22.6562 13.9478 22.0194C13.9478 21.3826 14.4658 20.8645 15.1026 20.8645Z" fill="#020288"/>
</svg>
