<svg width="46" height="46" viewBox="0 0 46 46" fill="none" xmlns="http://www.w3.org/2000/svg">
<path d="M23 30C26.866 30 30 26.866 30 23C30 19.134 26.866 16 23 16C19.134 16 16 19.134 16 23C16 26.866 19.134 30 23 30Z" stroke="#161617" stroke-width="2" stroke-miterlimit="10" stroke-linecap="round" stroke-linejoin="round"/>
<path d="M39 23C38.998 21.8478 38.872 20.6992 38.624 19.574L44.052 15.464L40.052 8.536L33.766 11.188C32.0639 9.62712 30.0435 8.45413 27.844 7.75L27 1H19L18.156 7.75C15.9565 8.45413 13.9361 9.62712 12.234 11.188L5.948 8.536L1.948 15.464L7.376 19.574C6.87501 21.8305 6.87501 24.1695 7.376 26.426L1.948 30.536L5.948 37.464L12.234 34.812C13.9361 36.3729 15.9565 37.5459 18.156 38.25L19 45H27L27.844 38.25C30.0435 37.5459 32.0639 36.3729 33.766 34.812L40.052 37.464L44.052 30.536L38.624 26.426C38.872 25.3008 38.998 24.1522 39 23V23Z" stroke="#161617" stroke-width="2" stroke-miterlimit="10" stroke-linecap="round" stroke-linejoin="round"/>
</svg>
